<mxfile host="app.diagrams.net" modified="2023-07-15T15:08:54.256Z" agent="Mozilla/5.0 (Windows NT 10.0; Win64; x64) AppleWebKit/537.36 (KHTML, like Gecko) Chrome/114.0.0.0 Safari/537.36 Edg/114.0.1823.79" version="21.6.2" etag="rHH9IbyrStOdR0R63k2_" type="github">
  <diagram name="Page-1" id="bWyrejZZqtOjHX-OOeJd">
    <mxGraphModel>
      <root>
        <mxCell id="0" />
        <mxCell id="1" parent="0" />
      </root>
    </mxGraphModel>
  </diagram>
</mxfile>
